<svg width="32" height="30" viewBox="0 0 32 30" fill="none" xmlns="http://www.w3.org/2000/svg">
<path d="M30.45 5.73L20 12.59V6.8C20.0006 6.61077 19.9476 6.42523 19.847 6.26495C19.7464 6.10468 19.6024 5.97623 19.4317 5.89455C19.261 5.81287 19.0706 5.78129 18.8827 5.8035C18.6947 5.82571 18.517 5.90078 18.37 6.02L12.07 11.29H8V1.35L2 0V11.29H0V28.29C0 28.5552 0.105357 28.8096 0.292893 28.9971C0.48043 29.1846 0.734784 29.29 1 29.29H31C31.2652 29.29 31.5196 29.1846 31.7071 28.9971C31.8946 28.8096 32 28.5552 32 28.29V6.56C31.9991 6.37992 31.9495 6.20343 31.8566 6.04917C31.7637 5.89491 31.6308 5.7686 31.4721 5.68359C31.3133 5.59858 31.1346 5.55802 30.9547 5.56618C30.7748 5.57435 30.6004 5.63095 30.45 5.73ZM12 26.29H4V24.29H12V26.29ZM12 22.29H4V20.29H12V22.29ZM12 18.29H4V16.29H12V18.29ZM20 26.29H18V23.29H20V26.29ZM20 20.29H18V17.29H20V20.29ZM24 26.29H22V23.29H24V26.29ZM24 20.29H22V17.29H24V20.29ZM28 26.29H26V23.29H28V26.29ZM28 20.29H26V17.29H28V20.29Z" fill="black"/>
</svg>
