<svg width="32" height="30" viewBox="0 0 32 30" fill="none" xmlns="http://www.w3.org/2000/svg">
<path d="M31 27.5H1L1.5 11.5H3V0L7.5 1.5V11.5H11.5L20 5L20.5 11.5L31 4.5V27.5Z" fill="white"/>
<path d="M31.47 4.67426C31.3128 4.59544 31.1375 4.55948 30.9619 4.57001C30.7864 4.58054 30.6167 4.6372 30.47 4.73426L21 11.0743V5.56426C21.0003 5.37408 20.9464 5.18775 20.8445 5.02713C20.7427 4.86652 20.5972 4.73827 20.425 4.65744C20.2528 4.57661 20.0612 4.54655 19.8726 4.57079C19.6839 4.59502 19.5061 4.67254 19.36 4.79426L11.48 11.3043H8V1.92426C8.00565 1.6931 7.93102 1.46712 7.7888 1.2848C7.64659 1.10247 7.44558 0.975064 7.22 0.924262L3.22 0.0242626C3.07242 -0.00885304 2.91925 -0.00805967 2.77202 0.0265829C2.62479 0.0612254 2.48733 0.128815 2.37 0.224263C2.24994 0.321517 2.15406 0.445267 2.08986 0.585804C2.02567 0.726341 1.99491 0.879842 2 1.03426V11.3043H1C0.734784 11.3043 0.48043 11.4096 0.292893 11.5972C0.105357 11.7847 0 12.039 0 12.3043V28.3043C0 28.5695 0.105357 28.8238 0.292893 29.0114C0.48043 29.1989 0.734784 29.3043 1 29.3043H31C31.2652 29.3043 31.5196 29.1989 31.7071 29.0114C31.8946 28.8238 32 28.5695 32 28.3043V5.56426C32.0013 5.38166 31.9526 5.20218 31.8592 5.04529C31.7658 4.8884 31.6312 4.76008 31.47 4.67426ZM4 2.30426L6 2.74426V11.3043H4V2.30426ZM30 27.3043H2V13.3043H11.83C12.0637 13.3047 12.2901 13.2233 12.47 13.0743L19 7.67426V12.9543C18.9997 13.1359 19.0489 13.3142 19.1424 13.47C19.2358 13.6259 19.3699 13.7533 19.5303 13.8386C19.6907 13.9239 19.8713 13.964 20.0527 13.9544C20.2341 13.9448 20.4095 13.886 20.56 13.7843L30 7.44426V27.3043Z" fill="white"/>
<path d="M4 15.3043H12V17.3043H4V15.3043ZM4 19.3043H12V21.3043H4V19.3043ZM4 23.3043H12V25.3043H4V23.3043ZM17 16.3043H19V19.3043H17V16.3043ZM17 22.3043H19V25.3043H17V22.3043ZM21 16.3043H23V19.3043H21V16.3043ZM21 22.3043H23V25.3043H21V22.3043ZM25 16.3043H27V19.3043H25V16.3043ZM25 22.3043H27V25.3043H25V22.3043Z" fill="#5382DE"/>
</svg>
