<svg width="32" height="33" viewBox="0 0 32 33" fill="none" xmlns="http://www.w3.org/2000/svg">
<path d="M30.0833 16.5188C29.9554 16.5196 29.8285 16.495 29.7101 16.4467C29.5916 16.3983 29.4839 16.327 29.393 16.2369L15.5 2.3341L1.60693 16.2369C1.42094 16.3962 1.1817 16.4794 0.937017 16.4699C0.692332 16.4605 0.460225 16.359 0.287077 16.1859C0.11393 16.0128 0.0124955 15.7806 0.0030444 15.536C-0.00640672 15.2913 0.0768214 15.052 0.236097 14.866L14.8194 0.282715C15.0016 0.101638 15.248 0 15.5048 0C15.7617 0 16.0081 0.101638 16.1903 0.282715L30.7736 14.866C30.9074 15.0025 30.998 15.1754 31.034 15.3631C31.0701 15.5508 31.0501 15.7449 30.9764 15.9213C30.9028 16.0976 30.7788 16.2484 30.6199 16.3547C30.4611 16.4609 30.2744 16.518 30.0833 16.5188Z" fill="white"/>
<path d="M15.5 7L3.83337 18.7056V30.5375C3.83337 31.0532 4.03823 31.5478 4.40289 31.9124C4.76754 32.2771 5.26212 32.4819 5.77782 32.4819H12.5834V22.7597H18.4167V32.4819H25.2223C25.738 32.4819 26.2325 32.2771 26.5972 31.9124C26.9618 31.5478 27.1667 31.0532 27.1667 30.5375V18.6375L15.5 7Z" fill="white"/>
</svg>
