<svg width="22" height="25" viewBox="0 0 22 25" fill="none" xmlns="http://www.w3.org/2000/svg">
<path fill-rule="evenodd" clip-rule="evenodd" d="M5.18833 0H16.8117C18.2282 0 18.9359 1.30382e-07 19.5079 0.203746C20.047 0.399645 20.5347 0.719813 20.9334 1.13946C21.3321 1.5591 21.6309 2.06695 21.8069 2.62369C22 3.22618 22 3.97116 22 5.46238V22.967C22 24.0395 20.7961 24.6095 20.0347 23.897C19.821 23.6951 19.5409 23.583 19.25 23.583C18.9591 23.583 18.679 23.6951 18.4653 23.897L17.875 24.4495C17.5007 24.8034 17.0097 25 16.5 25C15.9903 25 15.4993 24.8034 15.125 24.4495C14.7507 24.0955 14.2597 23.8989 13.75 23.8989C13.2403 23.8989 12.7493 24.0955 12.375 24.4495C12.0007 24.8034 11.5097 25 11 25C10.4903 25 9.99925 24.8034 9.625 24.4495C9.25075 24.0955 8.75975 23.8989 8.25 23.8989C7.74025 23.8989 7.24925 24.0955 6.875 24.4495C6.50075 24.8034 6.00975 25 5.5 25C4.99025 25 4.49925 24.8034 4.125 24.4495L3.53467 23.897C3.32104 23.6951 3.04086 23.583 2.75 23.583C2.45914 23.583 2.17896 23.6951 1.96533 23.897C1.20389 24.6095 0 24.0395 0 22.967V5.46238C0 3.97116 -1.82125e-08 3.22493 0.193111 2.62494C0.559778 1.48372 1.40922 0.588737 2.49211 0.203746C3.06411 1.30382e-07 3.77178 0 5.18833 0ZM4.88889 5.93737C4.64577 5.93737 4.41262 6.03614 4.24071 6.21195C4.0688 6.38776 3.97222 6.62621 3.97222 6.87485C3.97222 7.12349 4.0688 7.36194 4.24071 7.53775C4.41262 7.71356 4.64577 7.81233 4.88889 7.81233H5.5C5.74311 7.81233 5.97627 7.71356 6.14818 7.53775C6.32009 7.36194 6.41667 7.12349 6.41667 6.87485C6.41667 6.62621 6.32009 6.38776 6.14818 6.21195C5.97627 6.03614 5.74311 5.93737 5.5 5.93737H4.88889ZM9.16667 5.93737C8.92355 5.93737 8.69039 6.03614 8.51849 6.21195C8.34658 6.38776 8.25 6.62621 8.25 6.87485C8.25 7.12349 8.34658 7.36194 8.51849 7.53775C8.69039 7.71356 8.92355 7.81233 9.16667 7.81233H17.1111C17.3542 7.81233 17.5874 7.71356 17.7593 7.53775C17.9312 7.36194 18.0278 7.12349 18.0278 6.87485C18.0278 6.62621 17.9312 6.38776 17.7593 6.21195C17.5874 6.03614 17.3542 5.93737 17.1111 5.93737H9.16667ZM4.88889 10.3123C4.64577 10.3123 4.41262 10.411 4.24071 10.5869C4.0688 10.7627 3.97222 11.0011 3.97222 11.2498C3.97222 11.4984 4.0688 11.7368 4.24071 11.9127C4.41262 12.0885 4.64577 12.1872 4.88889 12.1872H5.5C5.74311 12.1872 5.97627 12.0885 6.14818 11.9127C6.32009 11.7368 6.41667 11.4984 6.41667 11.2498C6.41667 11.0011 6.32009 10.7627 6.14818 10.5869C5.97627 10.411 5.74311 10.3123 5.5 10.3123H4.88889ZM9.16667 10.3123C8.92355 10.3123 8.69039 10.411 8.51849 10.5869C8.34658 10.7627 8.25 11.0011 8.25 11.2498C8.25 11.4984 8.34658 11.7368 8.51849 11.9127C8.69039 12.0885 8.92355 12.1872 9.16667 12.1872H17.1111C17.3542 12.1872 17.5874 12.0885 17.7593 11.9127C17.9312 11.7368 18.0278 11.4984 18.0278 11.2498C18.0278 11.0011 17.9312 10.7627 17.7593 10.5869C17.5874 10.411 17.3542 10.3123 17.1111 10.3123H9.16667ZM4.88889 14.6872C4.64577 14.6872 4.41262 14.7859 4.24071 14.9618C4.0688 15.1376 3.97222 15.376 3.97222 15.6247C3.97222 15.8733 4.0688 16.1117 4.24071 16.2876C4.41262 16.4634 4.64577 16.5621 4.88889 16.5621H5.5C5.74311 16.5621 5.97627 16.4634 6.14818 16.2876C6.32009 16.1117 6.41667 15.8733 6.41667 15.6247C6.41667 15.376 6.32009 15.1376 6.14818 14.9618C5.97627 14.7859 5.74311 14.6872 5.5 14.6872H4.88889ZM9.16667 14.6872C8.92355 14.6872 8.69039 14.7859 8.51849 14.9618C8.34658 15.1376 8.25 15.376 8.25 15.6247C8.25 15.8733 8.34658 16.1117 8.51849 16.2876C8.69039 16.4634 8.92355 16.5621 9.16667 16.5621H17.1111C17.3542 16.5621 17.5874 16.4634 17.7593 16.2876C17.9312 16.1117 18.0278 15.8733 18.0278 15.6247C18.0278 15.376 17.9312 15.1376 17.7593 14.9618C17.5874 14.7859 17.3542 14.6872 17.1111 14.6872H9.16667Z" fill="white"/>
</svg>
