<svg width="20" height="29" viewBox="0 0 20 29" fill="none" xmlns="http://www.w3.org/2000/svg">
<path d="M2.5 29C1.8125 29 1.22417 28.7163 0.735 28.1488C0.245833 27.5814 0.000833333 26.8985 0 26.1V10.1861C0 9.22739 0.344358 8.30054 0.97036 7.57438L6.30324 1.38824C7.06309 0.506812 8.16914 0 9.33288 0H17.5C18.1875 0 18.7762 0.2842 19.2662 0.8526C19.7562 1.421 20.0008 2.10347 20 2.9V26.1C20 26.8975 19.7554 27.5804 19.2662 28.1488C18.7771 28.7172 18.1883 29.001 17.5 29H2.5ZM6.25 11.8C6.25 12.4904 6.80964 13.05 7.5 13.05C8.19036 13.05 8.75 12.4904 8.75 11.8V8.5C8.75 7.80964 8.19036 7.25 7.5 7.25C6.80964 7.25 6.25 7.80964 6.25 8.5V11.8ZM10 11.8C10 12.4904 10.5596 13.05 11.25 13.05C11.9404 13.05 12.5 12.4904 12.5 11.8V8.5C12.5 7.80964 11.9404 7.25 11.25 7.25C10.5596 7.25 10 7.80964 10 8.5V11.8ZM13.75 11.8C13.75 12.4904 14.3096 13.05 15 13.05C15.6904 13.05 16.25 12.4904 16.25 11.8V8.5C16.25 7.80964 15.6904 7.25 15 7.25C14.3096 7.25 13.75 7.80964 13.75 8.5V11.8Z" fill="white"/>
</svg>
